<svg width="162" height="192" viewBox="0 0 162 192" fill="none" xmlns="http://www.w3.org/2000/svg">
<rect width="161.882" height="192" rx="25" fill="#FBC95E"/>
<path d="M30.6471 152.994V155.831H24.7252V158.895H29.1563V161.649H24.7252V167.53H21.1845V152.994H30.6471Z" fill="#FCFCFC"/>
<path d="M36.0487 157.901C36.4629 157.266 36.9805 156.769 37.6017 156.41C38.2229 156.038 38.9131 155.851 39.6723 155.851V159.599H38.6991C37.8156 159.599 37.1531 159.792 36.7113 160.179C36.2696 160.552 36.0487 161.214 36.0487 162.167V167.53H32.508V155.976H36.0487V157.901Z" fill="#FCFCFC"/>
<path d="M52.2559 161.566C52.2559 161.898 52.2352 162.243 52.1938 162.602H44.1807C44.2359 163.319 44.4636 163.871 44.864 164.258C45.2781 164.631 45.7819 164.817 46.3755 164.817C47.2589 164.817 47.8732 164.444 48.2183 163.699H51.9868C51.7935 164.458 51.4415 165.141 50.9308 165.749C50.4338 166.356 49.8058 166.832 49.0465 167.178C48.2873 167.523 47.4384 167.695 46.4997 167.695C45.3678 167.695 44.3601 167.454 43.4767 166.97C42.5932 166.487 41.903 165.797 41.4061 164.9C40.9091 164.003 40.6607 162.954 40.6607 161.753C40.6607 160.552 40.9022 159.503 41.3854 158.605C41.8823 157.708 42.5725 157.018 43.456 156.535C44.3394 156.052 45.354 155.81 46.4997 155.81C47.6178 155.81 48.6117 156.045 49.4814 156.514C50.351 156.983 51.0274 157.653 51.5105 158.522C52.0075 159.392 52.2559 160.407 52.2559 161.566ZM48.6324 160.634C48.6324 160.027 48.4254 159.544 48.0112 159.185C47.5971 158.826 47.0795 158.647 46.4583 158.647C45.8647 158.647 45.3609 158.819 44.9468 159.164C44.5465 159.509 44.298 159.999 44.2014 160.634H48.6324Z" fill="#FCFCFC"/>
<path d="M58.8241 167.695C57.8164 167.695 56.9191 167.523 56.1323 167.178C55.3455 166.832 54.7243 166.363 54.2688 165.77C53.8133 165.162 53.5579 164.486 53.5027 163.74H57.002C57.0434 164.141 57.2297 164.465 57.561 164.714C57.8923 164.962 58.2995 165.086 58.7827 165.086C59.2244 165.086 59.5626 165.003 59.7973 164.838C60.0457 164.658 60.17 164.431 60.17 164.154C60.17 163.823 59.9974 163.582 59.6523 163.43C59.3072 163.264 58.7482 163.085 57.9751 162.891C57.1469 162.698 56.4567 162.498 55.9046 162.291C55.3524 162.07 54.8762 161.732 54.4758 161.276C54.0755 160.807 53.8754 160.179 53.8754 159.392C53.8754 158.73 54.0548 158.129 54.4137 157.591C54.7864 157.039 55.3248 156.604 56.0288 156.286C56.7466 155.969 57.5955 155.81 58.5756 155.81C60.025 155.81 61.1638 156.169 61.9921 156.887C62.8341 157.604 63.3173 158.557 63.4415 159.744H60.17C60.1147 159.344 59.9353 159.026 59.6316 158.792C59.3417 158.557 58.9552 158.44 58.4721 158.44C58.058 158.44 57.7405 158.522 57.5196 158.688C57.2988 158.84 57.1883 159.054 57.1883 159.33C57.1883 159.661 57.3609 159.91 57.706 160.075C58.0649 160.241 58.617 160.407 59.3624 160.572C60.2183 160.793 60.9154 161.014 61.4537 161.235C61.9921 161.442 62.4614 161.787 62.8617 162.27C63.2758 162.74 63.4898 163.375 63.5036 164.175C63.5036 164.852 63.3104 165.459 62.9238 165.997C62.5511 166.522 62.0059 166.936 61.2881 167.24C60.5841 167.543 59.7627 167.695 58.8241 167.695Z" fill="#FCFCFC"/>
<path d="M72.7719 155.851C74.0971 155.851 75.16 156.293 75.9606 157.177C76.7613 158.046 77.1616 159.247 77.1616 160.779V167.53H73.6416V161.256C73.6416 160.483 73.4414 159.882 73.0411 159.454C72.6408 159.026 72.1024 158.812 71.426 158.812C70.7496 158.812 70.2113 159.026 69.811 159.454C69.4107 159.882 69.2105 160.483 69.2105 161.256V167.53H65.6698V152.207H69.2105V157.529C69.5694 157.018 70.0595 156.611 70.6806 156.307C71.3018 156.003 71.9989 155.851 72.7719 155.851Z" fill="#FCFCFC"/>
<path d="M93.4725 152.994V155.831H87.5506V158.895H91.9816V161.649H87.5506V167.53H84.0099V152.994H93.4725Z" fill="#FCFCFC"/>
<path d="M98.8741 157.901C99.2882 157.266 99.8059 156.769 100.427 156.41C101.048 156.038 101.738 155.851 102.498 155.851V159.599H101.524C100.641 159.599 99.9784 159.792 99.5367 160.179C99.095 160.552 98.8741 161.214 98.8741 162.167V167.53H95.3334V155.976H98.8741V157.901Z" fill="#FCFCFC"/>
<path d="M115.599 155.976V167.53H112.058V165.956C111.699 166.467 111.209 166.881 110.588 167.198C109.981 167.502 109.304 167.654 108.559 167.654C107.676 167.654 106.896 167.46 106.219 167.074C105.543 166.674 105.018 166.101 104.646 165.355C104.273 164.61 104.086 163.733 104.086 162.726V155.976H107.606V162.25C107.606 163.023 107.807 163.623 108.207 164.051C108.607 164.479 109.146 164.693 109.822 164.693C110.512 164.693 111.057 164.479 111.458 164.051C111.858 163.623 112.058 163.023 112.058 162.25V155.976H115.599Z" fill="#FCFCFC"/>
<path d="M119.923 154.775C119.302 154.775 118.791 154.595 118.391 154.236C118.004 153.864 117.811 153.408 117.811 152.87C117.811 152.318 118.004 151.862 118.391 151.503C118.791 151.13 119.302 150.944 119.923 150.944C120.53 150.944 121.027 151.13 121.414 151.503C121.814 151.862 122.014 152.318 122.014 152.87C122.014 153.408 121.814 153.864 121.414 154.236C121.027 154.595 120.53 154.775 119.923 154.775ZM121.683 155.976V167.53H118.142V155.976H121.683Z" fill="#FCFCFC"/>
<path d="M130.688 164.527V167.53H128.887C127.603 167.53 126.602 167.219 125.885 166.598C125.167 165.963 124.808 164.934 124.808 163.513V158.916H123.4V155.976H124.808V153.16H128.349V155.976H130.668V158.916H128.349V163.554C128.349 163.899 128.431 164.148 128.597 164.299C128.763 164.451 129.039 164.527 129.425 164.527H130.688Z" fill="#FCFCFC"/>
<path d="M137.361 167.695C136.353 167.695 135.456 167.523 134.669 167.178C133.882 166.832 133.261 166.363 132.806 165.77C132.35 165.162 132.095 164.486 132.039 163.74H135.539C135.58 164.141 135.766 164.465 136.098 164.714C136.429 164.962 136.836 165.086 137.319 165.086C137.761 165.086 138.099 165.003 138.334 164.838C138.582 164.658 138.707 164.431 138.707 164.154C138.707 163.823 138.534 163.582 138.189 163.43C137.844 163.264 137.285 163.085 136.512 162.891C135.684 162.698 134.993 162.498 134.441 162.291C133.889 162.07 133.413 161.732 133.013 161.276C132.612 160.807 132.412 160.179 132.412 159.392C132.412 158.73 132.592 158.129 132.95 157.591C133.323 157.039 133.862 156.604 134.566 156.286C135.283 155.969 136.132 155.81 137.112 155.81C138.562 155.81 139.701 156.169 140.529 156.887C141.371 157.604 141.854 158.557 141.978 159.744H138.707C138.652 159.344 138.472 159.026 138.168 158.792C137.878 158.557 137.492 158.44 137.009 158.44C136.595 158.44 136.277 158.522 136.056 158.688C135.836 158.84 135.725 159.054 135.725 159.33C135.725 159.661 135.898 159.91 136.243 160.075C136.602 160.241 137.154 160.407 137.899 160.572C138.755 160.793 139.452 161.014 139.99 161.235C140.529 161.442 140.998 161.787 141.398 162.27C141.813 162.74 142.027 163.375 142.04 164.175C142.04 164.852 141.847 165.459 141.461 165.997C141.088 166.522 140.543 166.936 139.825 167.24C139.121 167.543 138.3 167.695 137.361 167.695Z" fill="#FCFCFC"/>
<path d="M90.6206 91.2222L69.2084 67.316L49.0697 92.3123C34.6816 110.174 47.3814 136.762 70.309 136.762C93.905 136.762 106.374 108.807 90.6206 91.2222ZM70.309 130.458C53.0975 130.458 43.5669 110.503 54.3651 97.0935L69.4793 78.3319L85.5557 96.2745C97.3796 109.476 88.0219 130.458 70.309 130.458Z" fill="#FCFCFC"/>
<path d="M100.114 25.1871C79.4966 30.2807 71.1835 51.3802 69.6041 61.2932C74.166 47.6833 93.018 41.4604 101.874 40.0502C108.545 37.3312 110.143 33.6856 110.108 32.2027C109.759 25.5885 103.3 24.7698 100.114 25.1871Z" fill="#12B76A"/>
<path d="M116.576 54.2517C97.7081 44.5039 77.5553 54.9038 69.8374 61.3223C82.2345 54.0867 100.518 61.822 108.11 66.5941C114.921 68.9425 118.524 67.252 119.475 66.1133C123.569 60.9067 119.248 56.0362 116.576 54.2517Z" fill="#12B76A"/>
</svg>
